<svg width="87" height="24" viewBox="0 0 87 24" fill="none" xmlns="http://www.w3.org/2000/svg">
<path d="M13.791 10.785C13.7679 8.22284 15.8904 6.97636 15.9874 6.91832C14.7854 5.16704 12.9223 4.92776 12.2676 4.90868C10.7029 4.74413 9.18502 5.84434 8.38792 5.84434C7.57491 5.84434 6.34744 4.92458 5.02451 4.95161C3.32212 4.97784 1.72951 5.96279 0.856043 7.49228C-0.946579 10.6109 0.397831 15.1938 2.12488 17.7146C2.9888 18.9491 3.9983 20.3276 5.31964 20.2791C6.61234 20.2258 7.09522 19.4555 8.65521 19.4555C10.2009 19.4555 10.6543 20.2791 12.0019 20.2481C13.3893 20.2258 14.2628 19.008 15.0964 17.7623C16.0948 16.3473 16.4957 14.9537 16.5117 14.8822C16.479 14.871 13.8173 13.8559 13.791 10.785Z" fill="white"/>
<path d="M11.2453 3.25056C11.9406 2.38168 12.4163 1.19958 12.2842 0C11.2779 0.0445174 10.0194 0.695584 9.29472 1.54539C8.65354 2.29424 8.08078 3.52164 8.22874 4.67592C9.35916 4.76018 10.5198 4.10593 11.2453 3.25056Z" fill="white"/>
<path d="M32.4988 20.1028H30.6922L29.7026 16.9953H26.2628L25.3201 20.1028H23.5613L26.9692 9.52356H29.0742L32.4988 20.1028ZM29.4043 15.6916L28.5093 12.9291C28.4147 12.6469 28.2373 11.9824 27.9756 10.9362H27.9437C27.8395 11.3861 27.6717 12.0507 27.441 12.9291L26.5619 15.6916H29.4043Z" fill="white"/>
<path d="M41.263 16.1949C41.263 17.4923 40.9122 18.5178 40.2106 19.2706C39.5821 19.9407 38.8017 20.2754 37.8702 20.2754C36.8647 20.2754 36.1423 19.9145 35.7024 19.1927H35.6706V23.2112H33.9746V14.9858C33.9746 14.1702 33.9531 13.3331 33.9117 12.4745H35.4033L35.498 13.6837H35.5298C36.0954 12.7726 36.9538 12.3179 38.1057 12.3179C39.0062 12.3179 39.7579 12.6733 40.3593 13.3848C40.9623 14.097 41.263 15.0335 41.263 16.1949ZM39.5352 16.2569C39.5352 15.5144 39.3681 14.9023 39.0324 14.4206C38.6657 13.9182 38.1733 13.667 37.556 13.667C37.1375 13.667 36.7573 13.8069 36.4176 14.0827C36.0771 14.361 35.8544 14.7243 35.7502 15.1742C35.6977 15.3841 35.6714 15.5558 35.6714 15.6909V16.9628C35.6714 17.5177 35.8416 17.9859 36.1821 18.3683C36.5226 18.7507 36.9649 18.9415 37.509 18.9415C38.1478 18.9415 38.645 18.695 39.0006 18.2038C39.357 17.7117 39.5352 17.063 39.5352 16.2569Z" fill="white"/>
<path d="M50.043 16.1949C50.043 17.4923 49.6922 18.5178 48.9898 19.2706C48.3621 19.9407 47.5817 20.2754 46.6502 20.2754C45.6446 20.2754 44.9223 19.9145 44.4832 19.1927H44.4514V23.2112H42.7554V14.9858C42.7554 14.1702 42.7339 13.3331 42.6925 12.4745H44.1841L44.2788 13.6837H44.3106C44.8754 12.7726 45.7337 12.3179 46.8864 12.3179C47.7862 12.3179 48.5379 12.6733 49.1409 13.3848C49.7415 14.097 50.043 15.0335 50.043 16.1949ZM48.3152 16.2569C48.3152 15.5144 48.1473 14.9023 47.8116 14.4206C47.4449 13.9182 46.954 13.667 46.3359 13.667C45.9167 13.667 45.5372 13.8069 45.1968 14.0827C44.8563 14.361 44.6343 14.7243 44.5301 15.1742C44.4784 15.3841 44.4514 15.5558 44.4514 15.6909V16.9628C44.4514 17.5177 44.6216 17.9859 44.9605 18.3683C45.301 18.7499 45.7433 18.9415 46.289 18.9415C46.9278 18.9415 47.425 18.695 47.7806 18.2038C48.137 17.7117 48.3152 17.063 48.3152 16.2569Z" fill="white"/>
<path d="M59.8596 17.1357C59.8596 18.0356 59.547 18.7678 58.9193 19.333C58.2296 19.9506 57.2694 20.2591 56.0356 20.2591C54.8964 20.2591 53.9832 20.0397 53.2919 19.6001L53.6849 18.1874C54.4295 18.6374 55.2464 18.8631 56.1366 18.8631C56.7754 18.8631 57.2726 18.7185 57.6298 18.4307C57.9854 18.1429 58.1628 17.7566 58.1628 17.2748C58.1628 16.8456 58.0164 16.4839 57.7229 16.1905C57.4309 15.8972 56.9433 15.6245 56.2623 15.3725C54.4088 14.6817 53.4828 13.6697 53.4828 12.339C53.4828 11.4693 53.8074 10.7562 54.4573 10.2013C55.1048 9.64566 55.9688 9.36823 57.0491 9.36823C58.0124 9.36823 58.8127 9.53596 59.4515 9.87064L59.0275 11.2523C58.4309 10.9279 57.7563 10.7658 57.0013 10.7658C56.4047 10.7658 55.9385 10.9128 55.6044 11.2054C55.322 11.4669 55.1804 11.7857 55.1804 12.1633C55.1804 12.5814 55.3419 12.9272 55.6665 13.1991C55.9489 13.4503 56.462 13.7222 57.2066 14.0155C58.1174 14.382 58.7865 14.8105 59.2168 15.3018C59.6456 15.7914 59.8596 16.4044 59.8596 17.1357Z" fill="white"/>
<path d="M65.4672 13.7449H63.5978V17.4486C63.5978 18.3906 63.9271 18.8612 64.5874 18.8612C64.8905 18.8612 65.1419 18.835 65.3408 18.7825L65.3877 20.0696C65.0536 20.1944 64.6137 20.2572 64.0687 20.2572C63.3989 20.2572 62.8755 20.0529 62.4976 19.6451C62.1213 19.2365 61.932 18.5512 61.932 17.5885V13.7433H60.8183V12.4714H61.932V11.0747L63.5978 10.5723V12.4714H65.4672V13.7449Z" fill="white"/>
<path d="M73.902 16.2265C73.902 17.399 73.5663 18.3617 72.8965 19.1145C72.1941 19.8896 71.2617 20.276 70.0995 20.276C68.9794 20.276 68.0877 19.9047 67.4226 19.1622C66.7576 18.4197 66.425 17.4825 66.425 16.3529C66.425 15.1708 66.7671 14.2025 67.4536 13.4497C68.1386 12.6961 69.063 12.3193 70.2252 12.3193C71.3453 12.3193 72.2466 12.6905 72.9267 13.4338C73.5775 14.1548 73.902 15.0857 73.902 16.2265ZM72.1424 16.2813C72.1424 15.5778 71.992 14.9744 71.6873 14.4712C71.3317 13.8623 70.8234 13.5586 70.1647 13.5586C69.483 13.5586 68.9651 13.8631 68.6095 14.4712C68.3048 14.9752 68.1545 15.5881 68.1545 16.3131C68.1545 17.0167 68.3048 17.62 68.6095 18.1224C68.9762 18.7314 69.4886 19.035 70.1496 19.035C70.7972 19.035 71.3055 18.725 71.6722 18.1065C71.9849 17.5938 72.1424 16.9841 72.1424 16.2813Z" fill="white"/>
<path d="M79.4151 13.9651C79.2472 13.9341 79.0682 13.9182 78.8805 13.9182C78.2839 13.9182 77.8225 14.1431 77.4979 14.5939C77.2155 14.9914 77.0739 15.4938 77.0739 16.1003V20.1029H75.3787L75.3946 14.8769C75.3946 13.9977 75.3731 13.1972 75.3309 12.4753H76.8082L76.8702 13.9349H76.9172C77.0962 13.4333 77.3786 13.0294 77.7652 12.7265C78.1431 12.4539 78.5512 12.3179 78.9911 12.3179C79.1478 12.3179 79.2894 12.3291 79.4151 12.3489V13.9651Z" fill="white"/>
<path d="M87 15.9275C87 16.2312 86.9802 16.4872 86.938 16.6963H81.8499C81.8698 17.4499 82.1156 18.0262 82.5882 18.4237C83.0169 18.779 83.5714 18.9571 84.2524 18.9571C85.0057 18.9571 85.693 18.8371 86.3111 18.5962L86.5768 19.7727C85.8545 20.0875 85.0017 20.2441 84.0177 20.2441C82.834 20.2441 81.9048 19.8959 81.2286 19.2004C80.554 18.5048 80.2159 17.5707 80.2159 16.3989C80.2159 15.2486 80.5302 14.2907 81.1594 13.5268C81.8181 12.7112 82.7083 12.3033 83.8283 12.3033C84.9285 12.3033 85.7614 12.7112 86.327 13.5268C86.7749 14.1747 87 14.976 87 15.9275ZM85.3828 15.4879C85.3939 14.9855 85.2833 14.5515 85.0534 14.185C84.7599 13.7136 84.3088 13.4783 83.7019 13.4783C83.1474 13.4783 82.6963 13.708 82.3519 14.1691C82.0695 14.5356 81.9016 14.9752 81.8499 15.4871L85.3828 15.4879Z" fill="white"/>
<path d="M28.8439 3.01554C28.8439 3.9512 28.5631 4.65552 28.0023 5.12852C27.4828 5.56495 26.7446 5.78356 25.7884 5.78356C25.3142 5.78356 24.9085 5.76289 24.5688 5.72156V0.609212C25.0119 0.537666 25.4893 0.501099 26.0047 0.501099C26.9156 0.501099 27.6021 0.699042 28.0651 1.09493C28.5838 1.54249 28.8439 2.18242 28.8439 3.01554ZM27.9649 3.03859C27.9649 2.43204 27.8042 1.96699 27.4828 1.64265C27.1614 1.31911 26.6921 1.15693 26.074 1.15693C25.8114 1.15693 25.5879 1.17442 25.4025 1.21099V5.09752C25.5052 5.11342 25.6929 5.12057 25.9658 5.12057C26.6038 5.12057 27.0962 4.9433 27.443 4.58875C27.7899 4.2342 27.9649 3.71748 27.9649 3.03859Z" fill="white"/>
<path d="M33.5049 3.83259C33.5049 4.40893 33.3402 4.88113 33.0109 5.25158C32.6656 5.63237 32.2082 5.82236 31.637 5.82236C31.0865 5.82236 30.6482 5.64032 30.3213 5.27464C29.9951 4.90975 29.832 4.44948 29.832 3.8946C29.832 3.31428 29.9999 2.8381 30.3372 2.46845C30.6745 2.0988 31.1279 1.91357 31.6991 1.91357C32.2496 1.91357 32.6919 2.09562 33.0268 2.4605C33.345 2.81505 33.5049 3.27294 33.5049 3.83259ZM32.6402 3.85962C32.6402 3.51382 32.5654 3.2173 32.4166 2.97007C32.2416 2.67116 31.9926 2.52171 31.6689 2.52171C31.334 2.52171 31.0794 2.67116 30.9044 2.97007C30.7548 3.2173 30.6808 3.51858 30.6808 3.87472C30.6808 4.22053 30.7556 4.51705 30.9044 4.76428C31.085 5.06318 31.3363 5.21263 31.6609 5.21263C31.9791 5.21263 32.2289 5.06079 32.4087 4.75633C32.563 4.50433 32.6402 4.20542 32.6402 3.85962Z" fill="white"/>
<path d="M39.7544 1.98926L38.5811 5.73667H37.8174L37.3313 4.1094C37.208 3.70318 37.1078 3.29934 37.0298 2.89868H37.0147C36.9423 3.31047 36.8421 3.71351 36.7132 4.1094L36.1969 5.73667H35.4245L34.3211 1.98926H35.1779L35.6019 3.77075C35.7045 4.19207 35.7888 4.59352 35.8564 4.97351H35.8716C35.9336 4.6603 36.0362 4.26123 36.181 3.7787L36.7132 1.99005H37.3926L37.9025 3.74054C38.0258 4.16743 38.126 4.57842 38.2032 4.97431H38.2263C38.2827 4.58876 38.3679 4.17776 38.4808 3.74054L38.9359 1.99005H39.7544V1.98926Z" fill="white"/>
<path d="M44.0763 5.73706H43.2426V3.59069C43.2426 2.92928 42.9912 2.59858 42.4869 2.59858C42.2395 2.59858 42.0398 2.68921 41.8847 2.87125C41.7311 3.0533 41.6532 3.26793 41.6532 3.51358V5.73627H40.8195V3.06045C40.8195 2.73134 40.8091 2.37441 40.7892 1.98806H41.5219L41.5609 2.57394H41.584C41.681 2.3919 41.8258 2.24165 42.0159 2.12161C42.2418 1.9817 42.4948 1.91095 42.7717 1.91095C43.1217 1.91095 43.4128 2.02383 43.6443 2.25039C43.9323 2.52783 44.0763 2.942 44.0763 3.49211V5.73706Z" fill="white"/>
<path d="M46.3753 5.73704H45.5424V0.270142H46.3753V5.73704Z" fill="white"/>
<path d="M51.2836 3.83259C51.2836 4.40893 51.119 4.88113 50.7896 5.25158C50.4444 5.63237 49.9862 5.82236 49.4158 5.82236C48.8645 5.82236 48.4262 5.64032 48.1 5.27464C47.7739 4.90975 47.6108 4.44948 47.6108 3.8946C47.6108 3.31428 47.7786 2.8381 48.1159 2.46845C48.4532 2.0988 48.9067 1.91357 49.477 1.91357C50.0283 1.91357 50.4698 2.09562 50.8055 2.4605C51.1237 2.81505 51.2836 3.27294 51.2836 3.83259ZM50.4181 3.85962C50.4181 3.51382 50.3434 3.2173 50.1946 2.97007C50.0204 2.67116 49.7706 2.52171 49.4476 2.52171C49.1119 2.52171 48.8573 2.67116 48.6831 2.97007C48.5336 3.2173 48.4596 3.51858 48.4596 3.87472C48.4596 4.22053 48.5344 4.51705 48.6831 4.76428C48.8637 5.06318 49.1151 5.21263 49.4397 5.21263C49.7579 5.21263 50.0069 5.06079 50.1866 4.75633C50.3418 4.50433 50.4181 4.20542 50.4181 3.85962Z" fill="white"/>
<path d="M55.3184 5.7373H54.5699L54.5078 5.30564H54.4847C54.2286 5.64986 53.8634 5.82236 53.3893 5.82236C53.0353 5.82236 52.7489 5.70868 52.5334 5.48291C52.3377 5.27782 52.2398 5.02264 52.2398 4.71976C52.2398 4.26187 52.4307 3.91288 52.815 3.67122C53.1984 3.42955 53.7378 3.3111 54.4322 3.31667V3.24671C54.4322 2.75305 54.1729 2.50661 53.6534 2.50661C53.2835 2.50661 52.9574 2.59962 52.6757 2.78405L52.5063 2.23712C52.8547 2.02169 53.2851 1.91357 53.7926 1.91357C54.7727 1.91357 55.2643 2.43029 55.2643 3.46373V4.84377C55.2643 5.2182 55.2826 5.5163 55.3184 5.7373ZM54.4529 4.44948V3.87154C53.5333 3.85565 53.0735 4.10765 53.0735 4.62675C53.0735 4.82231 53.126 4.96858 53.2334 5.06636C53.3408 5.16414 53.4776 5.21263 53.6407 5.21263C53.8237 5.21263 53.9947 5.1546 54.1506 5.03933C54.3073 4.92327 54.4036 4.7762 54.4394 4.59575C54.4481 4.5552 54.4529 4.50592 54.4529 4.44948Z" fill="white"/>
<path d="M60.0559 5.73703H59.316L59.2771 5.13525H59.254C59.0177 5.59315 58.6152 5.82209 58.0496 5.82209C57.5977 5.82209 57.2215 5.64482 56.9231 5.29027C56.6248 4.93572 56.4761 4.47544 56.4761 3.91023C56.4761 3.30368 56.6376 2.8124 56.9621 2.43718C57.2764 2.0874 57.6614 1.91251 58.1196 1.91251C58.6231 1.91251 58.9756 2.08184 59.176 2.42128H59.1919V0.270142H60.0264V4.72744C60.0264 5.09233 60.036 5.42859 60.0559 5.73703ZM59.1919 4.15667V3.53183C59.1919 3.42372 59.184 3.33628 59.1689 3.2695C59.1219 3.06917 59.0209 2.90064 58.8674 2.7647C58.7122 2.62877 58.5253 2.5604 58.3097 2.5604C57.9987 2.5604 57.7552 2.68362 57.5763 2.93085C57.3989 3.17808 57.309 3.49368 57.309 3.87923C57.309 4.24968 57.3941 4.55017 57.5651 4.7815C57.7457 5.02794 57.9891 5.15115 58.2938 5.15115C58.5675 5.15115 58.7862 5.0486 58.9525 4.84271C59.1132 4.65272 59.1919 4.42377 59.1919 4.15667Z" fill="white"/>
<path d="M67.1859 3.83259C67.1859 4.40893 67.0213 4.88113 66.6919 5.25158C66.3467 5.63237 65.89 5.82236 65.3181 5.82236C64.7684 5.82236 64.3301 5.64032 64.0023 5.27464C63.6761 4.90975 63.5131 4.44948 63.5131 3.8946C63.5131 3.31428 63.6809 2.8381 64.0182 2.46845C64.3555 2.0988 64.8089 1.91357 65.3809 1.91357C65.9306 1.91357 66.3737 2.09562 66.7078 2.4605C67.026 2.81505 67.1859 3.27294 67.1859 3.83259ZM66.322 3.85962C66.322 3.51382 66.2472 3.2173 66.0985 2.97007C65.9227 2.67116 65.6745 2.52171 65.3499 2.52171C65.0158 2.52171 64.7612 2.67116 64.5854 2.97007C64.4359 3.2173 64.3619 3.51858 64.3619 3.87472C64.3619 4.22053 64.4366 4.51705 64.5854 4.76428C64.766 5.06318 65.0174 5.21263 65.3419 5.21263C65.6601 5.21263 65.9107 5.06079 66.0905 4.75633C66.244 4.50433 66.322 4.20542 66.322 3.85962Z" fill="white"/>
<path d="M71.6686 5.73706H70.8357V3.59069C70.8357 2.92928 70.5844 2.59858 70.0792 2.59858C69.8318 2.59858 69.6321 2.68921 69.4778 2.87125C69.3235 3.0533 69.2463 3.26793 69.2463 3.51358V5.73627H68.4118V3.06045C68.4118 2.73134 68.4023 2.37441 68.3824 1.98806H69.1143L69.1532 2.57394H69.1763C69.2742 2.3919 69.4189 2.24165 69.6083 2.12161C69.835 1.9817 70.0872 1.91095 70.3648 1.91095C70.714 1.91095 71.0052 2.02383 71.2367 2.25039C71.5254 2.52783 71.6686 2.942 71.6686 3.49211V5.73706Z" fill="white"/>
<path d="M77.2791 2.61334H76.3611V4.43379C76.3611 4.89645 76.5242 5.12778 76.8472 5.12778C76.9967 5.12778 77.1208 5.11506 77.2187 5.08883L77.2402 5.72082C77.0755 5.78282 76.8591 5.81383 76.5926 5.81383C76.2633 5.81383 76.0071 5.71366 75.8218 5.51333C75.6356 5.31301 75.5433 4.97594 75.5433 4.50295V2.61334H74.9952V1.98931H75.5433V1.30247L76.3603 1.05603V1.98851H77.2783L77.2791 2.61334Z" fill="white"/>
<path d="M81.6927 5.73704H80.8582V3.60656C80.8582 2.93483 80.6069 2.59856 80.1033 2.59856C79.7167 2.59856 79.4526 2.79332 79.3078 3.18285C79.2831 3.26473 79.2688 3.3649 79.2688 3.48255V5.73624H78.4359V0.270142H79.2688V2.5286H79.2847C79.5472 2.11761 79.9235 1.91251 80.4112 1.91251C80.7564 1.91251 81.042 2.0254 81.2687 2.25196C81.5511 2.53417 81.6927 2.9539 81.6927 3.50878V5.73704Z" fill="white"/>
<path d="M86.2454 3.68554C86.2454 3.83499 86.2342 3.96059 86.2143 4.06314H83.714C83.7252 4.43359 83.8445 4.7158 84.076 4.91136C84.2876 5.08625 84.5605 5.17369 84.8946 5.17369C85.2645 5.17369 85.6018 5.11487 85.9057 4.99642L86.0361 5.57514C85.6805 5.72936 85.2621 5.80648 84.7776 5.80648C84.1969 5.80648 83.7395 5.63556 83.4086 5.29373C83.076 4.9519 82.9114 4.49321 82.9114 3.91767C82.9114 3.35245 83.0649 2.88184 83.3744 2.50662C83.6973 2.10597 84.1341 1.90564 84.6854 1.90564C85.2247 1.90564 85.6344 2.10597 85.9112 2.50662C86.1348 2.82461 86.2454 3.21811 86.2454 3.68554ZM85.4498 3.47011C85.4562 3.22288 85.4013 3.00983 85.2884 2.83017C85.1436 2.59884 84.9232 2.48278 84.6249 2.48278C84.3528 2.48278 84.1309 2.59566 83.9614 2.82222C83.823 3.00268 83.7411 3.21811 83.714 3.47011H85.4498Z" fill="white"/>
</svg>
