<svg width="98" height="24" viewBox="0 0 98 24" fill="none" xmlns="http://www.w3.org/2000/svg">
<path d="M81.9019 20.5574H83.478V9.99756H81.9019V20.5574ZM96.0981 13.8018L94.2914 18.3797H94.2374L92.3623 13.8018H90.6646L93.4773 20.2001L91.8733 23.7595H93.517L97.8509 13.8021L96.0981 13.8018ZM87.1594 19.358C86.6441 19.358 85.9237 19.0996 85.9237 18.4612C85.9237 17.6462 86.8207 17.3337 87.5944 17.3337C88.287 17.3337 88.6139 17.4829 89.0346 17.6868C88.9121 18.6651 88.0699 19.358 87.1594 19.358ZM87.3503 13.5708C86.2091 13.5708 85.0275 14.0736 84.5384 15.1875L85.9372 15.7715C86.2362 15.1875 86.7928 14.9975 87.3773 14.9975C88.1924 14.9975 89.021 15.4861 89.0345 16.3559V16.4644C88.749 16.3014 88.1375 16.057 87.3908 16.057C85.8823 16.057 84.3475 16.8854 84.3475 18.4341C84.3475 19.847 85.5841 20.7572 86.9693 20.7572C88.0286 20.7572 88.6139 20.2818 88.9796 19.7246H89.0345V20.5401H90.5566V16.4914C90.5566 14.6167 89.1561 13.5708 87.3503 13.5708ZM77.6095 15.0872H75.3678V11.4678H77.6095C78.7878 11.4678 79.4568 12.4431 79.4568 13.2775C79.4568 14.0958 78.7878 15.0872 77.6095 15.0872ZM77.569 9.99782H73.7924V20.5577H75.3679V16.5572H77.569C79.3158 16.5572 81.033 15.2928 81.033 13.2778C81.033 11.2632 79.3157 9.99782 77.569 9.99782ZM56.9757 19.3597C55.8868 19.3597 54.9755 18.4477 54.9755 17.1963C54.9755 15.9303 55.8868 15.0055 56.9757 15.0055C58.0507 15.0055 58.8943 15.9304 58.8943 17.1963C58.8943 18.4477 58.0507 19.3597 56.9757 19.3597ZM58.7854 14.3929H58.7309C58.3773 13.9711 57.6965 13.5901 56.8397 13.5901C55.0432 13.5901 53.3967 15.1689 53.3967 17.1963C53.3967 19.21 55.0432 20.7749 56.8397 20.7749C57.6965 20.7749 58.3772 20.3937 58.7309 19.9586H58.7854V20.4753C58.7854 21.8502 58.0507 22.5846 56.8668 22.5846C55.901 22.5846 55.3022 21.8907 55.057 21.3057L53.6829 21.8771C54.0772 22.8293 55.1247 24 56.8668 24C58.7178 24 60.2827 22.9111 60.2827 20.2574V13.8077H58.7855L58.7854 14.3929ZM61.3715 20.5571H62.9493V9.99725H61.3715V20.5571ZM65.2764 17.0736C65.2358 15.6855 66.352 14.9781 67.1544 14.9781C67.7807 14.9781 68.3108 15.2912 68.4884 15.74L65.2764 17.0736ZM70.175 15.8759C69.8758 15.0735 68.9642 13.5901 67.0999 13.5901C65.249 13.5901 63.7115 15.0461 63.7115 17.1825C63.7115 19.1965 65.2358 20.7749 67.2765 20.7749C68.9229 20.7749 69.8758 19.7683 70.2707 19.1829L69.0459 18.3663C68.6376 18.9652 68.0799 19.3598 67.2765 19.3598C66.4741 19.3598 65.9023 18.9923 65.5354 18.2711L70.3384 16.2845L70.175 15.8759ZM31.9057 14.6924V16.2164H35.5525C35.4436 17.0737 35.1578 17.6995 34.7223 18.1351C34.1914 18.6656 33.3614 19.2509 31.9056 19.2509C29.6603 19.2509 27.905 17.4412 27.905 15.1959C27.905 12.9506 29.6603 11.1407 31.9056 11.1407C33.1168 11.1407 34.0011 11.617 34.6543 12.2294L35.7296 11.1542C34.8176 10.2834 33.6067 9.61664 31.9056 9.61664C28.8298 9.61664 26.2444 12.1205 26.2444 15.1959C26.2444 18.271 28.8298 20.7749 31.9056 20.7749C33.5655 20.7749 34.8177 20.2305 35.7972 19.21C36.8043 18.203 37.1173 16.7879 37.1173 15.6447C37.1173 15.2913 37.0899 14.9647 37.0355 14.6924H31.9057ZM41.2638 19.3597C40.1749 19.3597 39.236 18.4616 39.236 17.1825C39.236 15.8898 40.1749 15.0055 41.2638 15.0055C42.3522 15.0055 43.2912 15.8898 43.2912 17.1825C43.2912 18.4616 42.3522 19.3597 41.2638 19.3597ZM41.2638 13.5901C39.2765 13.5901 37.6575 15.1005 37.6575 17.1825C37.6575 19.2509 39.2765 20.7749 41.2638 20.7749C43.2504 20.7749 44.8697 19.2509 44.8697 17.1825C44.8697 15.1005 43.2504 13.5901 41.2638 13.5901ZM49.13 19.3597C48.0419 19.3597 47.1026 18.4616 47.1026 17.1825C47.1026 15.8898 48.042 15.0055 49.13 15.0055C50.2189 15.0055 51.1576 15.8898 51.1576 17.1825C51.1576 18.4616 50.2189 19.3597 49.13 19.3597ZM49.13 13.5901C47.1435 13.5901 45.5244 15.1005 45.5244 17.1825C45.5244 19.2509 47.1435 20.7749 49.13 20.7749C51.1173 20.7749 52.7364 19.2509 52.7364 17.1825C52.7364 15.1005 51.1173 13.5901 49.13 13.5901Z" fill="white"/>
<path d="M9.07563 11.6236L0.0836792 21.168C0.0840175 21.17 0.0846928 21.1716 0.0850096 21.1737C0.360787 22.2101 1.30742 22.9732 2.43088 22.9732C2.87998 22.9732 3.30163 22.8518 3.66323 22.6386L3.69195 22.6218L13.8141 16.7809L9.07563 11.6236Z" fill="#F93449"/>
<path d="M18.1735 9.9993L18.1648 9.9934L13.7948 7.46002L8.8714 11.8411L13.8119 16.781L18.1589 14.2728C18.921 13.8614 19.4384 13.0579 19.4384 12.1314C19.4384 11.2116 18.928 10.4121 18.1735 9.9993Z" fill="#FFCA00"/>
<path d="M0.0824692 3.05396C0.0284123 3.25329 0 3.46209 0 3.67891V20.5447C0 20.7611 0.028077 20.9706 0.0828117 21.1692L9.38518 11.8688L0.0824692 3.05396Z" fill="#00D3FF"/>
<path d="M9.14214 12.1111L13.7967 7.45794L3.68596 1.59587C3.31845 1.37575 2.88952 1.24872 2.43054 1.24872C1.30709 1.24872 0.359174 2.01323 0.0833461 3.05085C0.0830078 3.05186 0.0830078 3.05256 0.0830078 3.05344L9.14214 12.1111Z" fill="#00F177"/>
<path d="M31.61 3.47843H29.146V4.08819H30.9924C30.9422 4.58577 30.7443 4.97642 30.4104 5.26017C30.0765 5.54397 29.6502 5.68647 29.146 5.68647C28.593 5.68647 28.1245 5.4938 27.7405 5.11109C27.3643 4.72044 27.173 4.23736 27.173 3.65536C27.173 3.0734 27.3643 2.59032 27.7405 2.1997C28.1245 1.81699 28.593 1.62559 29.146 1.62559C29.4298 1.62559 29.7004 1.67442 29.9484 1.78134C30.1966 1.88819 30.3958 2.03736 30.5516 2.22876L31.0201 1.76023C30.8076 1.51866 30.5384 1.33393 30.2044 1.1993C29.8705 1.06466 29.5221 1.00004 29.146 1.00004C28.4082 1.00004 27.7827 1.25606 27.2719 1.76684C26.7612 2.27887 26.5051 2.90974 26.5051 3.65538C26.5051 4.40101 26.7611 5.03325 27.2719 5.54404C27.7827 6.05472 28.4082 6.31084 29.146 6.31084C29.9207 6.31084 30.5383 6.06268 31.0135 5.55849C31.4318 5.13887 31.6456 4.57136 31.6456 3.86133C31.6456 3.74122 31.6311 3.61307 31.61 3.47843ZM32.5646 1.11344V6.19724H35.5327V5.57296H33.2179V3.96025H35.3058V3.3505H33.2179V1.73905H35.5327V1.11342L32.5646 1.11344ZM39.6947 1.73907V1.11344H36.2012V1.73907H37.6213V6.19723H38.2746V1.73907H39.6947ZM42.8574 1.11344H42.2042V6.19724H42.8574V1.11344ZM47.1695 1.73907V1.11344H43.6761V1.73907H45.0961V6.19723H45.7493V1.73907H47.1695ZM53.7617 1.77471C53.2575 1.25602 52.6399 1 51.9021 1C51.1631 1 50.5455 1.25601 50.0413 1.76679C49.5371 2.27097 49.289 2.90311 49.289 3.65533C49.289 4.40756 49.5371 5.03979 50.0413 5.544C50.5454 6.05467 51.1631 6.31079 51.9021 6.31079C52.6332 6.31079 53.2575 6.05469 53.7617 5.544C54.2659 5.03982 54.5139 4.40762 54.5139 3.65533C54.5139 2.9097 54.2658 2.27879 53.7617 1.77471ZM50.5098 2.19965C50.8859 1.81694 51.3479 1.62555 51.9021 1.62555C52.4551 1.62555 52.917 1.81695 53.2866 2.19965C53.6627 2.57578 53.8474 3.06667 53.8474 3.65532C53.8474 4.24531 53.6627 4.73487 53.2866 5.11105C52.917 5.49376 52.4551 5.68642 51.9021 5.68642C51.3478 5.68642 50.8859 5.49375 50.5098 5.11105C50.1415 4.72699 49.9568 4.2453 49.9568 3.65532C49.9568 3.06668 50.1415 2.58368 50.5098 2.19965ZM56.066 3.03113L56.0383 2.05046H56.066L58.6501 6.19719H59.3324V1.11338H58.6791V4.08813L58.7068 5.06879H58.6791L56.2085 1.11338H55.4127V6.19719H56.066V3.03113Z" fill="white" stroke="white" stroke-width="0.26666" stroke-miterlimit="10"/>
</svg>
