<svg width="425" height="245" viewBox="0 0 425 245" fill="none" xmlns="http://www.w3.org/2000/svg">
<g opacity="0.1">
<path d="M436.286 7.87608C261.441 48.1818 195.431 207.436 195.431 207.436C194.593 206.538 193.45 206.013 192.256 205.89L179.615 204.668C169.583 203.727 159.556 202.119 149.756 199.881C196.039 92.3792 275.176 46.0179 333.883 26.0371C376.031 11.6838 414.23 8.39718 436.286 7.87608Z" fill="url(#paint0_linear_49_9610)"/>
<path d="M436.284 7.87729C426.314 65.1414 396.514 116.387 352.133 152.495L342.731 160.194C341.813 160.968 341.185 162.003 340.989 163.185L311.086 330.559L195.428 207.437C195.428 207.437 261.438 48.183 436.284 7.87729Z" fill="url(#paint1_linear_49_9610)"/>
<path d="M177.979 67.7626C83.7104 85.4854 56.582 153.364 55.8491 155.308L55.8171 155.318C41.8268 144.485 29.0594 132.049 17.8254 118.334C42.0436 102.88 105.864 67.1973 177.979 67.7626Z" fill="url(#paint2_linear_49_9610)"/>
<path d="M177.975 67.7619C155.336 89.705 117.337 132.084 100.702 182.954C84.7091 175.403 69.614 166.103 55.8231 155.349L55.8551 155.339C56.5781 153.364 83.7065 85.4847 177.975 67.7619Z" fill="url(#paint3_linear_49_9610)"/>
<path d="M445.992 -0.548952C445.022 -1.65202 443.638 -2.27719 442.165 -2.27922C420.914 -2.21645 378.177 0.330174 330.637 16.5199C268.974 37.4817 185.504 86.615 138.186 201.447C137.625 202.811 137.697 204.296 138.345 205.604C138.994 206.911 140.191 207.84 141.602 208.211C153.66 211.296 166.174 213.47 178.7 214.658L189.418 215.667L310.641 344.68C311.944 346.067 313.892 346.588 315.726 346.058L315.79 346.038C317.582 345.486 318.941 343.981 319.247 342.134L350.573 166.75L358.517 160.236C405.618 121.923 436.98 67.2164 446.759 6.26061C446.896 5.34193 447.066 4.41339 447.193 3.46269C447.417 2.02679 446.963 0.554135 446.024 -0.558801L445.992 -0.548952ZM340.961 163.192L311.09 330.556L195.4 207.444C194.563 206.546 193.442 205.979 192.216 205.867L179.616 204.666C169.543 203.703 159.548 202.086 149.757 199.879C196.008 92.3873 275.146 46.026 333.884 26.0354C376.032 11.682 414.232 8.39545 436.288 7.87435C426.318 65.1384 396.518 116.384 352.137 152.492L342.735 160.192C341.807 160.933 341.189 162 340.961 163.192Z" fill="url(#paint4_linear_49_9610)"/>
<path d="M193.594 66.9122C195.107 65.5695 195.643 63.4415 194.987 61.5404C194.331 59.6392 192.592 58.3172 190.551 58.1749C105.244 52.6656 28.994 98.7329 7.65354 112.95C6.49176 113.728 5.71182 114.95 5.46871 116.322C5.2256 117.694 5.5956 119.122 6.46034 120.223C19.0275 136.331 33.549 150.821 49.6107 163.259C64.6504 174.995 81.1271 185.026 98.6346 193.057L99.9768 193.66C100.302 193.805 100.637 193.983 100.994 194.118L101.602 194.386C102.755 194.942 104.045 195.036 105.261 194.661C105.453 194.602 105.645 194.543 105.827 194.451C107.186 193.858 108.188 192.673 108.601 191.283C125.651 132.889 173.715 84.85 193.552 66.8901L193.594 66.9122ZM177.981 67.7615C155.342 89.7046 117.311 132.094 100.698 182.922C84.6731 175.38 69.5878 166.112 55.7871 155.326C41.7968 144.494 29.0614 132.048 17.8175 118.301C42.0357 102.847 105.866 67.1962 177.981 67.7615Z" fill="url(#paint5_linear_49_9610)"/>
</g>
<defs>
<linearGradient id="paint0_linear_49_9610" x1="136.302" y1="156.214" x2="452.019" y2="58.9387" gradientUnits="userSpaceOnUse">
<stop stop-color="#33CC00"/>
<stop offset="1" stop-color="#6BDD1D"/>
</linearGradient>
<linearGradient id="paint1_linear_49_9610" x1="199.995" y1="222.26" x2="476.124" y2="137.183" gradientUnits="userSpaceOnUse">
<stop stop-color="#6BDD1D"/>
<stop offset="1" stop-color="#33CC00"/>
</linearGradient>
<linearGradient id="paint2_linear_49_9610" x1="22.856" y1="134.661" x2="183.355" y2="85.2103" gradientUnits="userSpaceOnUse">
<stop stop-color="#33CC00"/>
<stop offset="1" stop-color="#6BDD1D"/>
</linearGradient>
<linearGradient id="paint3_linear_49_9610" x1="54.4225" y1="150.803" x2="190.631" y2="108.836" gradientUnits="userSpaceOnUse">
<stop stop-color="#6BDD1D"/>
<stop offset="1" stop-color="#33CC00"/>
</linearGradient>
<linearGradient id="paint4_linear_49_9610" x1="147.445" y1="235.365" x2="486.909" y2="130.773" gradientUnits="userSpaceOnUse">
<stop stop-color="#33CC00"/>
<stop offset="1" stop-color="#6BDD1D"/>
</linearGradient>
<linearGradient id="paint5_linear_49_9610" x1="17.8609" y1="158.248" x2="206.843" y2="100.021" gradientUnits="userSpaceOnUse">
<stop stop-color="#33CC00"/>
<stop offset="1" stop-color="#6BDD1D"/>
</linearGradient>
</defs>
</svg>
